<svg data-v-423bf9ae="" xmlns="http://www.w3.org/2000/svg" viewBox="0 0 677.2106452309118 199" class="iconAboveSlogan"><!----><!----><!----><g data-v-423bf9ae="" id="6025b5d0-994a-473c-a687-a0c1dfe79bba" fill="black" transform="matrix(5.934717742604922,0,0,5.934717742604922,-3.73887586107503,76.82789947537563)"><path d="M0.63 14.35L5.17 14.35C7.88 14.35 9.90 12.61 9.90 9.46C9.90 6.31 7.88 4.58 5.17 4.58L0.63 4.58L0.63 5.45L1.64 5.45L1.64 13.48L0.63 13.48ZM3.72 5.53L4.83 5.53C6.73 5.53 7.59 6.36 7.59 8.27L7.59 10.65C7.59 12.57 6.73 13.40 4.83 13.40L3.72 13.40ZM11.26 14.35L19.22 14.35L19.22 11.55L17.68 11.55L17.68 13.40L14.35 13.40L14.35 9.76L16.42 9.76L16.42 10.65L17.46 10.65L17.46 7.91L16.42 7.91L16.42 8.81L14.35 8.81L14.35 5.53L17.56 5.53L17.56 7.14L19.10 7.14L19.10 4.58L11.26 4.58L11.26 5.45L12.26 5.45L12.26 13.48L11.26 13.48ZM20.58 14.35L28.46 14.35L28.46 11.55L26.92 11.55L26.92 13.40L22.96 13.40L28.31 5.50L28.31 4.58L20.76 4.58L20.76 7.14L22.30 7.14L22.30 5.53L25.93 5.53L20.58 13.43ZM29.81 14.35L37.77 14.35L37.77 11.55L36.23 11.55L36.23 13.40L32.90 13.40L32.90 9.76L34.97 9.76L34.97 10.65L36.01 10.65L36.01 7.91L34.97 7.91L34.97 8.81L32.90 8.81L32.90 5.53L36.11 5.53L36.11 7.14L37.65 7.14L37.65 4.58L29.81 4.58L29.81 5.45L30.81 5.45L30.81 13.48L29.81 13.48ZM39.16 14.35L43.60 14.35L43.60 13.48L42.25 13.48L42.25 10.04L44.41 10.04C46.42 10.04 47.52 9.02 47.52 7.31C47.52 5.42 46.42 4.58 44.41 4.58L39.16 4.58L39.16 5.45L40.17 5.45L40.17 13.48L39.16 13.48ZM42.25 5.53L43.83 5.53C44.81 5.53 45.37 6.03 45.37 6.96L45.37 7.66C45.37 8.58 44.81 9.09 43.83 9.09L42.25 9.09ZM50.76 14.35L55.54 14.35L55.54 13.48L54.19 13.48L54.19 5.53L56.18 5.53L56.18 7.14L57.72 7.14L57.72 4.58L48.58 4.58L48.58 7.14L50.12 7.14L50.12 5.53L52.11 5.53L52.11 13.48L50.76 13.48ZM58.77 14.35L62.87 14.35L62.87 13.48L61.87 13.48L61.87 5.45L62.87 5.45L62.87 4.58L58.77 4.58L58.77 5.45L59.78 5.45L59.78 13.48L58.77 13.48ZM71.23 14.52C73.49 14.52 74.84 13.24 74.84 11.48C74.84 9.76 73.70 8.88 71.78 8.46L71.15 8.33C69.79 8.04 69.27 7.66 69.27 6.79C69.27 6.02 69.87 5.39 71.18 5.39C72.41 5.39 73.12 5.82 73.12 6.79L73.12 7.41L74.66 7.41L74.66 4.58L73.12 4.58L73.12 5.36L73.07 5.36C72.81 4.91 72.11 4.41 70.97 4.41C68.87 4.41 67.62 5.56 67.62 7.21C67.62 9.11 68.89 9.98 70.80 10.39L71.47 10.53C72.72 10.79 73.11 11.19 73.11 12.03C73.11 12.92 72.46 13.54 71.09 13.54C69.76 13.54 69.05 13.08 69.05 12.10L69.05 11.48L67.51 11.48L67.51 14.35L69.05 14.35L69.05 13.54L69.10 13.54C69.36 14 70.08 14.52 71.23 14.52ZM78.02 14.35L82.80 14.35L82.80 13.48L81.45 13.48L81.45 5.53L83.44 5.53L83.44 7.14L84.98 7.14L84.98 4.58L75.84 4.58L75.84 7.14L77.38 7.14L77.38 5.53L79.37 5.53L79.37 13.48L78.02 13.48ZM90.50 13.54C89.15 13.54 88.17 12.64 88.17 10.89L88.17 8.04C88.17 6.29 89.15 5.39 90.50 5.39C91.84 5.39 92.82 6.29 92.82 8.04L92.82 10.89C92.82 12.64 91.84 13.54 90.50 13.54ZM90.50 14.52C93.17 14.52 95.13 12.68 95.13 9.46C95.13 6.24 93.17 4.41 90.50 4.41C87.82 4.41 85.86 6.24 85.86 9.46C85.86 12.68 87.82 14.52 90.50 14.52ZM96.49 14.35L100.59 14.35L100.59 13.48L99.58 13.48L99.58 10.00L100.77 10.00L102.35 13.01C102.84 13.94 103.39 14.35 104.68 14.35L105.94 14.35L105.94 13.48L105.87 13.48C105.22 13.48 104.85 13.26 104.47 12.61L102.66 9.59C103.95 9.32 104.83 8.41 104.83 7.08C104.83 5.35 103.63 4.58 101.84 4.58L96.49 4.58L96.49 5.45L97.50 5.45L97.50 13.48L96.49 13.48ZM99.58 5.53L101.15 5.53C102.13 5.53 102.70 6.02 102.70 6.92L102.70 7.70C102.70 8.60 102.13 9.09 101.15 9.09L99.58 9.09ZM106.78 14.35L114.74 14.35L114.74 11.55L113.20 11.55L113.20 13.40L109.87 13.40L109.87 9.76L111.94 9.76L111.94 10.65L112.98 10.65L112.98 7.91L111.94 7.91L111.94 8.81L109.87 8.81L109.87 5.53L113.08 5.53L113.08 7.14L114.62 7.14L114.62 4.58L106.78 4.58L106.78 5.45L107.79 5.45L107.79 13.48L106.78 13.48Z"></path></g><!----><g data-v-423bf9ae="" id="1aeee35e-66bf-439e-8d07-34cf6ae9640d" transform="matrix(6.427772776907166,0,0,6.427772776907166,287.79688974245596,-5.423825503673569)" stroke="none" fill="black"><path d="M0 1v1h2.531l.781 3.625.5 3.344-.594 3.063a1.487 1.487 0 0 0-1.219 1.469 1.5 1.5 0 0 0 1.5 1.5c.69 0 1.263-.459 1.438-1.094h7.125a1.484 1.484 0 0 0 1.438 1.094 1.5 1.5 0 0 0 0-3c-.621 0-1.147.368-1.375.906h-7.25a1.454 1.454 0 0 0-.656-.719L4.657 10h9.844c.3 0 .5-.2.5-.5l.906-6c.1-.3-.106-.5-.406-.5H3.813L3.5 1.594h-.031a.651.651 0 0 0-.125-.281c-.069-.08-.123-.149-.188-.188A.814.814 0 0 0 2.687 1H-.001z"></path></g><!----><g data-v-423bf9ae="" id="4a47b0aa-2053-4d22-88bb-b6762f948689" fill="black" transform="matrix(1.8088534793499491,0,0,1.8088534793499491,82.60327054619887,191.41633999028556)"><path d="M4.19 6.69L4.19 6.69L4.19 6.69Q3.63 6.69 3.33 6.38L3.33 6.38L3.33 6.38Q3.02 6.06 3.02 5.61L3.02 5.61L3.02 5.61Q3.02 5.50 3.06 5.35L3.06 5.35L3.06 5.35Q3.09 5.19 3.15 5.08L3.15 5.08L3.15 5.08Q3.33 5.17 3.69 5.20L3.69 5.20L3.69 5.20Q4.05 5.24 4.52 5.24L4.52 5.24L4.52 5.24Q5.24 5.24 6.14 5.17L6.14 5.17L6.14 5.17Q7.04 5.11 7.87 5.04L7.87 5.04L7.87 5.04Q8.69 4.97 9.32 4.91L9.32 4.91L9.32 4.91Q9.95 4.84 10.14 4.84L10.14 4.84L10.14 4.84Q10.65 4.84 10.88 5.23L10.88 5.23L10.88 5.23Q11.12 5.61 11.23 6.26L11.23 6.26L11.23 6.26Q10.86 6.23 10.51 6.21L10.51 6.21L10.51 6.21Q10.15 6.19 9.90 6.19L9.90 6.19L9.90 6.19Q9.45 6.19 9.00 6.22L9.00 6.22L9.00 6.22Q8.54 6.24 8.08 6.30L8.08 6.30L8.08 6.30Q7.88 6.71 7.64 7.26L7.64 7.26L7.64 7.26Q7.41 7.81 7.17 8.41L7.17 8.41L7.17 8.41Q6.94 9.02 6.73 9.61L6.73 9.61L6.73 9.61Q6.52 10.21 6.37 10.68L6.37 10.68L6.37 10.68Q6.06 11.61 5.83 12.39L5.83 12.39L5.83 12.39Q5.60 13.17 5.42 13.85L5.42 13.85L5.42 13.85Q5.25 14.53 5.12 15.15L5.12 15.15L5.12 15.15Q5.00 15.76 4.90 16.35L4.90 16.35L4.90 16.35Q3.96 16.21 3.33 15.18L3.33 15.18L3.33 15.18Q3.44 14.74 3.60 14.23L3.60 14.23L3.60 14.23Q3.77 13.72 3.98 13.07L3.98 13.07L3.98 13.07Q4.20 12.42 4.49 11.59L4.49 11.59L4.49 11.59Q4.79 10.77 5.17 9.72L5.17 9.72L5.17 9.72Q5.31 9.32 5.46 8.90L5.46 8.90L5.46 8.90Q5.61 8.47 5.76 8.05L5.76 8.05L5.76 8.05Q5.91 7.63 6.03 7.24L6.03 7.24L6.03 7.24Q6.15 6.85 6.23 6.52L6.23 6.52L6.23 6.52Q5.64 6.59 5.12 6.64L5.12 6.64L5.12 6.64Q4.59 6.69 4.19 6.69ZM22.11 14.36L22.11 14.36L22.11 14.36Q22.11 13.78 22.30 12.85L22.30 12.85L22.30 12.85Q22.50 11.93 22.82 10.88L22.82 10.88L22.82 10.88Q21.90 10.95 20.96 11.06L20.96 11.06L20.96 11.06Q20.03 11.17 19.35 11.19L19.35 11.19L19.35 11.19Q18.72 12.66 18.35 13.89L18.35 13.89L18.35 13.89Q17.98 15.13 17.77 16.31L17.77 16.31L17.77 16.31Q17.23 16.18 16.88 15.87L16.88 15.87L16.88 15.87Q16.53 15.55 16.24 15.08L16.24 15.08L16.24 15.08Q16.35 14.85 16.50 14.50L16.50 14.50L16.50 14.50Q16.65 14.15 16.85 13.66L16.85 13.66L16.85 13.66Q17.05 13.16 17.31 12.50L17.31 12.50L17.31 12.50Q17.57 11.83 17.91 10.95L17.91 10.95L17.91 10.95Q17.44 10.75 17.29 10.40L17.29 10.40L17.29 10.40Q17.36 10.35 17.61 10.28L17.61 10.28L17.61 10.28Q17.85 10.22 18.21 10.15L18.21 10.15L18.40 9.70L18.40 9.70Q18.69 8.95 18.88 8.43L18.88 8.43L18.88 8.43Q19.07 7.91 19.20 7.41L19.20 7.41L19.20 7.41Q19.33 6.92 19.45 6.31L19.45 6.31L19.45 6.31Q19.57 5.71 19.74 4.79L19.74 4.79L19.74 4.79Q20.33 4.90 20.81 5.31L20.81 5.31L20.81 5.31Q21.29 5.71 21.64 6.29L21.64 6.29L21.64 6.29Q21.52 6.45 21.34 6.79L21.34 6.79L21.34 6.79Q21.15 7.13 20.94 7.59L20.94 7.59L20.94 7.59Q20.72 8.06 20.47 8.64L20.47 8.64L20.47 8.64Q20.22 9.23 19.92 9.87L19.92 9.87L19.92 9.87Q20.79 9.76 21.68 9.66L21.68 9.66L21.68 9.66Q22.57 9.56 23.25 9.52L23.25 9.52L23.25 9.52Q23.51 8.79 23.78 8.10L23.78 8.10L23.78 8.10Q24.05 7.41 24.32 6.83L24.32 6.83L24.32 6.83Q24.58 6.26 24.83 5.82L24.83 5.82L24.83 5.82Q25.07 5.39 25.27 5.18L25.27 5.18L25.27 5.18Q25.41 5.19 25.64 5.29L25.64 5.29L25.64 5.29Q25.87 5.38 26.11 5.50L26.11 5.50L26.11 5.50Q26.35 5.63 26.54 5.78L26.54 5.78L26.54 5.78Q26.74 5.92 26.81 6.05L26.81 6.05L26.81 6.05Q26.56 6.29 26.31 6.66L26.31 6.66L26.31 6.66Q26.05 7.04 25.81 7.53L25.81 7.53L25.81 7.53Q25.56 8.02 25.33 8.60L25.33 8.60L25.33 8.60Q25.09 9.17 24.88 9.79L24.88 9.79L24.88 9.79Q25.16 10.04 25.16 10.42L25.16 10.42L25.16 10.42Q25.16 10.68 25.05 10.91L25.05 10.91L25.05 10.91Q24.92 10.88 24.79 10.87L24.79 10.87L24.79 10.87Q24.67 10.86 24.53 10.85L24.53 10.85L24.53 10.85Q24.29 11.61 24.09 12.35L24.09 12.35L24.09 12.35Q23.90 13.09 23.77 13.76L23.77 13.76L23.77 13.76Q23.63 14.43 23.55 14.99L23.55 14.99L23.55 14.99Q23.48 15.55 23.48 15.93L23.48 15.93L23.48 15.93Q23.48 16.07 23.48 16.16L23.48 16.16L23.48 16.16Q23.49 16.24 23.51 16.30L23.51 16.30L23.51 16.30Q23.20 16.28 23.06 16.19L23.06 16.19L23.06 16.19Q22.92 16.10 22.85 16.00L22.85 16.00L22.85 16.00Q22.78 15.89 22.72 15.79L22.72 15.79L22.72 15.79Q22.67 15.68 22.54 15.62L22.54 15.62L22.54 15.62Q22.44 15.58 22.36 15.43L22.36 15.43L22.36 15.43Q22.27 15.27 22.22 15.08L22.22 15.08L22.22 15.08Q22.16 14.88 22.13 14.69L22.13 14.69L22.13 14.69Q22.11 14.49 22.11 14.36ZM38.88 9.21L38.88 9.21L38.88 9.21Q39.34 9.21 39.60 9.46L39.60 9.46L39.60 9.46Q39.86 9.72 39.86 10.16L39.86 10.16L39.86 10.16Q39.86 10.28 39.84 10.39L39.84 10.39L39.84 10.39Q39.82 10.51 39.79 10.60L39.79 10.60L39.79 10.60Q39.61 10.57 39.38 10.55L39.38 10.55L39.38 10.55Q39.16 10.53 38.85 10.53L38.85 10.53L38.85 10.53Q38.25 10.53 37.63 10.63L37.63 10.63L37.63 10.63Q37.02 10.74 36.46 10.81L36.46 10.81L36.46 10.81Q36.13 11.55 35.87 12.24L35.87 12.24L35.87 12.24Q35.60 12.94 35.41 13.51L35.41 13.51L35.41 13.51Q35.22 14.08 35.12 14.50L35.12 14.50L35.12 14.50Q35.01 14.92 35 15.13L35 15.13L35 15.13Q36.13 14.90 37.29 14.73L37.29 14.73L37.29 14.73Q38.44 14.56 39.72 14.48L39.72 14.48L39.72 14.48Q39.87 14.71 39.98 14.99L39.98 14.99L39.98 14.99Q40.08 15.27 40.08 15.60L40.08 15.60L40.08 15.60Q40.08 15.68 40.08 15.78L40.08 15.78L40.08 15.78Q40.08 15.88 40.05 15.97L40.05 15.97L40.05 15.97Q39.66 15.96 39.23 15.95L39.23 15.95L39.23 15.95Q38.79 15.95 38.09 15.95L38.09 15.95L38.09 15.95Q37.63 15.95 37.22 15.97L37.22 15.97L37.22 15.97Q36.81 15.99 36.39 16.03L36.39 16.03L36.39 16.03Q35.97 16.07 35.50 16.14L35.50 16.14L35.50 16.14Q35.03 16.21 34.44 16.31L34.44 16.31L34.44 16.31Q33.80 16.06 33.19 15.08L33.19 15.08L33.19 15.08Q33.43 14.57 33.86 13.54L33.86 13.54L33.86 13.54Q34.29 12.52 34.94 10.79L34.94 10.79L34.94 10.79Q34.31 10.60 34.12 10.09L34.12 10.09L34.12 10.09Q34.19 10.02 34.52 9.92L34.52 9.92L34.52 9.92Q34.86 9.81 35.35 9.70L35.35 9.70L35.35 9.70Q35.56 9.16 35.71 8.75L35.71 8.75L35.71 8.75Q35.85 8.34 35.97 7.99L35.97 7.99L35.97 7.99Q36.08 7.63 36.17 7.29L36.17 7.29L36.17 7.29Q36.26 6.94 36.34 6.54L36.34 6.54L36.34 6.54Q35.85 6.51 35.57 6.27L35.57 6.27L35.57 6.27Q35.29 6.02 35.29 5.63L35.29 5.63L35.29 5.63Q35.29 5.52 35.33 5.36L35.33 5.36L35.33 5.36Q35.36 5.21 35.41 5.10L35.41 5.10L35.41 5.10Q35.69 5.14 35.95 5.15L35.95 5.15L35.95 5.15Q36.20 5.17 36.62 5.17L36.62 5.17L36.62 5.17Q37.51 5.17 38.28 5.12L38.28 5.12L38.28 5.12Q39.05 5.07 39.67 5.01L39.67 5.01L39.67 5.01Q40.29 4.96 40.74 4.91L40.74 4.91L40.74 4.91Q41.19 4.86 41.43 4.86L41.43 4.86L41.43 4.86Q41.75 4.86 42 5.19L42 5.19L42 5.19Q42.25 5.53 42.38 6.15L42.38 6.15L42.38 6.15Q41.94 6.10 41.67 6.09L41.67 6.09L41.67 6.09Q41.40 6.08 41.19 6.08L41.19 6.08L41.19 6.08Q40.42 6.08 39.78 6.15L39.78 6.15L39.78 6.15Q39.14 6.23 38.56 6.31L38.56 6.31L38.56 6.31Q38.47 6.44 38.37 6.64L38.37 6.64L38.37 6.64Q38.26 6.83 38.09 7.18L38.09 7.18L38.09 7.18Q37.93 7.53 37.68 8.06L37.68 8.06L37.68 8.06Q37.44 8.60 37.09 9.39L37.09 9.39L37.09 9.39Q37.62 9.31 38.09 9.26L38.09 9.26L38.09 9.26Q38.56 9.21 38.88 9.21ZM68.08 5.74L68.08 5.74L68.08 5.74Q68.12 5.98 68.14 6.07L68.14 6.07L68.14 6.07Q68.17 6.16 68.17 6.31L68.17 6.31L68.17 6.31Q68.17 6.78 67.96 7.18L67.96 7.18L67.96 7.18Q67.76 7.57 67.41 7.74L67.41 7.74L67.41 7.74Q67.13 7.36 66.72 7.09L66.72 7.09L66.72 7.09Q66.32 6.82 65.83 6.64L65.83 6.64L65.83 6.64Q65.35 6.47 64.83 6.38L64.83 6.38L64.83 6.38Q64.32 6.30 63.83 6.30L63.83 6.30L63.83 6.30Q63.34 6.30 62.91 6.38L62.91 6.38L62.91 6.38Q62.48 6.45 62.15 6.59L62.15 6.59L62.15 6.59Q61.82 6.72 61.63 6.92L61.63 6.92L61.63 6.92Q61.45 7.11 61.45 7.36L61.45 7.36L61.45 7.36Q61.49 7.67 61.82 7.99L61.82 7.99L61.82 7.99Q62.16 8.30 62.65 8.60L62.65 8.60L62.65 8.60Q63.14 8.90 63.73 9.20L63.73 9.20L63.73 9.20Q64.33 9.49 64.90 9.76L64.90 9.76L64.90 9.76Q65.62 10.09 66.14 10.38L66.14 10.38L66.14 10.38Q66.65 10.67 66.99 11.01L66.99 11.01L66.99 11.01Q67.33 11.35 67.49 11.79L67.49 11.79L67.49 11.79Q67.66 12.22 67.66 12.84L67.66 12.84L67.66 12.84Q67.66 13.55 67.42 14.18L67.42 14.18L67.42 14.18Q67.19 14.80 66.73 15.26L66.73 15.26L66.73 15.26Q66.28 15.72 65.63 15.98L65.63 15.98L65.63 15.98Q64.99 16.24 64.19 16.24L64.19 16.24L64.19 16.24Q63.41 16.24 62.50 16.00L62.50 16.00L62.50 16.00Q61.59 15.76 60.80 15.35L60.80 15.35L60.80 15.35Q60.00 14.94 59.48 14.40L59.48 14.40L59.48 14.40Q58.95 13.86 58.95 13.26L58.95 13.26L58.95 13.26Q58.95 12.98 59.12 12.54L59.12 12.54L59.12 12.54Q59.28 12.11 59.70 11.63L59.70 11.63L59.70 11.63Q59.74 12.05 60.15 12.63L60.15 12.63L60.15 12.63Q60.56 13.20 61.39 13.69L61.39 13.69L61.39 13.69Q62.16 14.14 62.98 14.34L62.98 14.34L62.98 14.34Q63.80 14.55 64.51 14.55L64.51 14.55L64.51 14.55Q65.30 14.55 65.79 14.35L65.79 14.35L65.79 14.35Q66.28 14.15 66.56 13.88L66.56 13.88L66.56 13.88Q66.84 13.61 66.95 13.33L66.95 13.33L66.95 13.33Q67.06 13.05 67.07 12.88L67.07 12.88L67.07 12.88Q67.06 12.60 66.81 12.34L66.81 12.34L66.81 12.34Q66.57 12.08 66.16 11.84L66.16 11.84L66.16 11.84Q65.74 11.59 65.20 11.34L65.20 11.34L65.20 11.34Q64.65 11.09 64.06 10.84L64.06 10.84L64.06 10.84Q63.18 10.44 62.55 10.10L62.55 10.10L62.55 10.10Q61.91 9.76 61.49 9.40L61.49 9.40L61.49 9.40Q61.08 9.04 60.89 8.65L60.89 8.65L60.89 8.65Q60.70 8.26 60.70 7.76L60.70 7.76L60.70 7.76Q60.70 6.97 61.18 6.27L61.18 6.27L61.18 6.27Q61.66 5.57 62.55 5.21L62.55 5.21L62.55 5.21Q63 5.01 63.51 4.93L63.51 4.93L63.51 4.93Q64.02 4.84 64.51 4.84L64.51 4.84L64.51 4.84Q65.44 4.84 66.32 5.10L66.32 5.10L66.32 5.10Q67.20 5.35 68.08 5.74ZM78.06 6.69L78.06 6.69L78.06 6.69Q77.50 6.69 77.20 6.38L77.20 6.38L77.20 6.38Q76.90 6.06 76.90 5.61L76.90 5.61L76.90 5.61Q76.90 5.50 76.94 5.35L76.94 5.35L76.94 5.35Q76.97 5.19 77.03 5.08L77.03 5.08L77.03 5.08Q77.21 5.17 77.57 5.20L77.57 5.20L77.57 5.20Q77.92 5.24 78.40 5.24L78.40 5.24L78.40 5.24Q79.11 5.24 80.02 5.17L80.02 5.17L80.02 5.17Q80.92 5.11 81.75 5.04L81.75 5.04L81.75 5.04Q82.57 4.97 83.20 4.91L83.20 4.91L83.20 4.91Q83.83 4.84 84.01 4.84L84.01 4.84L84.01 4.84Q84.53 4.84 84.76 5.23L84.76 5.23L84.76 5.23Q84.99 5.61 85.11 6.26L85.11 6.26L85.11 6.26Q84.74 6.23 84.39 6.21L84.39 6.21L84.39 6.21Q84.03 6.19 83.78 6.19L83.78 6.19L83.78 6.19Q83.33 6.19 82.87 6.22L82.87 6.22L82.87 6.22Q82.42 6.24 81.96 6.30L81.96 6.30L81.96 6.30Q81.76 6.71 81.52 7.26L81.52 7.26L81.52 7.26Q81.28 7.81 81.05 8.41L81.05 8.41L81.05 8.41Q80.82 9.02 80.61 9.61L80.61 9.61L80.61 9.61Q80.40 10.21 80.25 10.68L80.25 10.68L80.25 10.68Q79.94 11.61 79.71 12.39L79.71 12.39L79.71 12.39Q79.48 13.17 79.30 13.85L79.30 13.85L79.30 13.85Q79.13 14.53 79.00 15.15L79.00 15.15L79.00 15.15Q78.88 15.76 78.78 16.35L78.78 16.35L78.78 16.35Q77.84 16.21 77.21 15.18L77.21 15.18L77.21 15.18Q77.32 14.74 77.48 14.23L77.48 14.23L77.48 14.23Q77.64 13.72 77.86 13.07L77.86 13.07L77.86 13.07Q78.08 12.42 78.37 11.59L78.37 11.59L78.37 11.59Q78.67 10.77 79.04 9.72L79.04 9.72L79.04 9.72Q79.18 9.32 79.34 8.90L79.34 8.90L79.34 8.90Q79.49 8.47 79.64 8.05L79.64 8.05L79.64 8.05Q79.79 7.63 79.91 7.24L79.91 7.24L79.91 7.24Q80.02 6.85 80.11 6.52L80.11 6.52L80.11 6.52Q79.52 6.59 79.00 6.64L79.00 6.64L79.00 6.64Q78.47 6.69 78.06 6.69ZM95.90 5.75L95.90 5.75L95.90 5.75Q95.28 6.58 94.78 7.57L94.78 7.57L94.78 7.57Q94.28 8.57 93.92 9.61L93.92 9.61L93.92 9.61Q93.56 10.65 93.37 11.67L93.37 11.67L93.37 11.67Q93.18 12.68 93.18 13.57L93.18 13.57L93.18 13.57Q93.18 14.66 93.51 15.15L93.51 15.15L93.51 15.15Q93.83 15.64 94.61 15.64L94.61 15.64L94.61 15.64Q95.52 15.64 96.21 15.00L96.21 15.00L96.21 15.00Q96.89 14.36 97.50 13.24L97.50 13.24L97.50 13.24Q97.89 12.52 98.17 11.65L98.17 11.65L98.17 11.65Q98.45 10.78 98.62 9.86L98.62 9.86L98.62 9.86Q98.80 8.95 98.88 8.02L98.88 8.02L98.88 8.02Q98.97 7.08 98.97 6.23L98.97 6.23L98.97 6.23Q98.97 5.68 98.95 5.43L98.95 5.43L98.95 5.43Q98.94 5.18 98.91 5.03L98.91 5.03L98.91 5.03Q98.95 5.03 99.12 5.05L99.12 5.05L99.12 5.05Q99.29 5.08 99.50 5.12L99.50 5.12L99.50 5.12Q99.72 5.17 99.94 5.24L99.94 5.24L99.94 5.24Q100.16 5.31 100.31 5.39L100.31 5.39L100.31 5.39Q100.24 6.45 100.05 7.59L100.05 7.59L100.05 7.59Q99.86 8.72 99.55 9.83L99.55 9.83L99.55 9.83Q99.25 10.93 98.84 11.96L98.84 11.96L98.84 11.96Q98.43 12.98 97.93 13.79L97.93 13.79L97.93 13.79Q97.19 14.99 96.26 15.67L96.26 15.67L96.26 15.67Q95.34 16.35 94.08 16.35L94.08 16.35L94.08 16.35Q92.79 16.35 92.08 15.60L92.08 15.60L92.08 15.60Q91.36 14.85 91.36 13.33L91.36 13.33L91.36 13.33Q91.36 12.45 91.56 11.33L91.56 11.33L91.56 11.33Q91.76 10.22 92.08 9.07L92.08 9.07L92.08 9.07Q92.41 7.91 92.85 6.81L92.85 6.81L92.85 6.81Q93.28 5.71 93.76 4.84L93.76 4.84L93.76 4.84Q94.00 4.86 94.32 4.94L94.32 4.94L94.32 4.94Q94.64 5.03 94.95 5.16L94.95 5.16L94.95 5.16Q95.26 5.29 95.52 5.45L95.52 5.45L95.52 5.45Q95.77 5.61 95.90 5.75ZM108.22 14.45L108.22 14.45L108.22 14.45Q108.43 13.99 108.72 13.26L108.72 13.26L108.72 13.26Q109.02 12.53 109.34 11.68L109.34 11.68L109.34 11.68Q109.66 10.84 110.00 9.95L110.00 9.95L110.00 9.95Q110.33 9.06 110.63 8.26L110.63 8.26L110.63 8.26Q110.92 7.46 111.14 6.83L111.14 6.83L111.14 6.83Q111.36 6.20 111.45 5.87L111.45 5.87L111.45 5.87Q110.57 6.23 109.94 6.97L109.94 6.97L109.94 6.97Q109.31 7.71 108.99 8.83L108.99 8.83L108.99 8.83Q108.67 8.72 108.40 8.43L108.40 8.43L108.40 8.43Q108.14 8.15 108.05 7.71L108.05 7.71L108.05 7.71Q108.19 7.07 108.58 6.54L108.58 6.54L108.58 6.54Q108.96 6.01 109.55 5.63L109.55 5.63L109.55 5.63Q110.14 5.25 110.91 5.05L110.91 5.05L110.91 5.05Q111.68 4.84 112.56 4.84L112.56 4.84L112.56 4.84Q113.68 4.84 114.62 5.17L114.62 5.17L114.62 5.17Q115.56 5.50 116.23 6.09L116.23 6.09L116.23 6.09Q116.90 6.68 117.28 7.50L117.28 7.50L117.28 7.50Q117.66 8.33 117.66 9.34L117.66 9.34L117.66 9.34Q117.66 10.71 117.15 11.96L117.15 11.96L117.15 11.96Q116.65 13.20 115.79 14.15L115.79 14.15L115.79 14.15Q114.93 15.11 113.79 15.67L113.79 15.67L113.79 15.67Q112.66 16.24 111.41 16.24L111.41 16.24L111.41 16.24Q110.26 16.24 109.44 15.79L109.44 15.79L109.44 15.79Q108.63 15.33 108.22 14.45ZM113.16 5.54L113.16 5.54L113.16 5.54Q112.46 5.54 111.83 5.74L111.83 5.74L111.83 5.74Q112.45 5.96 112.85 6.21L112.85 6.21L112.85 6.21Q113.26 6.45 113.41 6.59L113.41 6.59L113.41 6.59Q113.30 6.75 113.08 7.14L113.08 7.14L113.08 7.14Q112.87 7.53 112.58 8.09L112.58 8.09L112.58 8.09Q112.29 8.65 111.97 9.32L111.97 9.32L111.97 9.32Q111.65 9.98 111.34 10.68L111.34 10.68L111.34 10.68Q110.54 12.46 110.19 13.48L110.19 13.48L110.19 13.48Q109.83 14.50 109.83 14.90L109.83 14.90L109.83 14.90Q110.03 14.97 110.31 14.99L110.31 14.99L110.31 14.99Q110.59 15.02 110.91 15.02L110.91 15.02L110.91 15.02Q112.04 15.02 113.06 14.50L113.06 14.50L113.06 14.50Q114.07 13.97 114.83 13.09L114.83 13.09L114.83 13.09Q115.60 12.21 116.04 11.04L116.04 11.04L116.04 11.04Q116.48 9.87 116.48 8.58L116.48 8.58L116.48 8.58Q116.48 7.14 115.58 6.34L115.58 6.34L115.58 6.34Q114.69 5.54 113.16 5.54ZM130.96 9.21L130.96 9.21L130.96 9.21Q131.42 9.21 131.68 9.46L131.68 9.46L131.68 9.46Q131.94 9.72 131.94 10.16L131.94 10.16L131.94 10.16Q131.94 10.28 131.91 10.39L131.91 10.39L131.91 10.39Q131.89 10.51 131.87 10.60L131.87 10.60L131.87 10.60Q131.68 10.57 131.46 10.55L131.46 10.55L131.46 10.55Q131.24 10.53 130.93 10.53L130.93 10.53L130.93 10.53Q130.33 10.53 129.71 10.63L129.71 10.63L129.71 10.63Q129.09 10.74 128.53 10.81L128.53 10.81L128.53 10.81Q128.21 11.55 127.95 12.24L127.95 12.24L127.95 12.24Q127.68 12.94 127.49 13.51L127.49 13.51L127.49 13.51Q127.30 14.08 127.20 14.50L127.20 14.50L127.20 14.50Q127.09 14.92 127.08 15.13L127.08 15.13L127.08 15.13Q128.21 14.90 129.37 14.73L129.37 14.73L129.37 14.73Q130.52 14.56 131.80 14.48L131.80 14.48L131.80 14.48Q131.95 14.71 132.05 14.99L132.05 14.99L132.05 14.99Q132.16 15.27 132.16 15.60L132.16 15.60L132.16 15.60Q132.16 15.68 132.16 15.78L132.16 15.78L132.16 15.78Q132.16 15.88 132.13 15.97L132.13 15.97L132.13 15.97Q131.74 15.96 131.31 15.95L131.31 15.95L131.31 15.95Q130.87 15.95 130.17 15.95L130.17 15.95L130.17 15.95Q129.71 15.95 129.30 15.97L129.30 15.97L129.30 15.97Q128.88 15.99 128.46 16.03L128.46 16.03L128.46 16.03Q128.04 16.07 127.57 16.14L127.57 16.14L127.57 16.14Q127.11 16.21 126.52 16.31L126.52 16.31L126.52 16.31Q125.87 16.06 125.27 15.08L125.27 15.08L125.27 15.08Q125.51 14.57 125.94 13.54L125.94 13.54L125.94 13.54Q126.36 12.52 127.02 10.79L127.02 10.79L127.02 10.79Q126.39 10.60 126.20 10.09L126.20 10.09L126.20 10.09Q126.27 10.02 126.60 9.92L126.60 9.92L126.60 9.92Q126.94 9.81 127.43 9.70L127.43 9.70L127.43 9.70Q127.64 9.16 127.78 8.75L127.78 8.75L127.78 8.75Q127.93 8.34 128.04 7.99L128.04 7.99L128.04 7.99Q128.16 7.63 128.25 7.29L128.25 7.29L128.25 7.29Q128.34 6.94 128.42 6.54L128.42 6.54L128.42 6.54Q127.93 6.51 127.65 6.27L127.65 6.27L127.65 6.27Q127.37 6.02 127.37 5.63L127.37 5.63L127.37 5.63Q127.37 5.52 127.41 5.36L127.41 5.36L127.41 5.36Q127.44 5.21 127.48 5.10L127.48 5.10L127.48 5.10Q127.76 5.14 128.02 5.15L128.02 5.15L128.02 5.15Q128.28 5.17 128.70 5.17L128.70 5.17L128.70 5.17Q129.58 5.17 130.35 5.12L130.35 5.12L130.35 5.12Q131.12 5.07 131.75 5.01L131.75 5.01L131.75 5.01Q132.37 4.96 132.82 4.91L132.82 4.91L132.82 4.91Q133.27 4.86 133.50 4.86L133.50 4.86L133.50 4.86Q133.83 4.86 134.08 5.19L134.08 5.19L134.08 5.19Q134.33 5.53 134.46 6.15L134.46 6.15L134.46 6.15Q134.02 6.10 133.75 6.09L133.75 6.09L133.75 6.09Q133.48 6.08 133.27 6.08L133.27 6.08L133.27 6.08Q132.50 6.08 131.86 6.15L131.86 6.15L131.86 6.15Q131.22 6.23 130.63 6.31L130.63 6.31L130.63 6.31Q130.55 6.44 130.44 6.64L130.44 6.64L130.44 6.64Q130.34 6.83 130.17 7.18L130.17 7.18L130.17 7.18Q130.00 7.53 129.76 8.06L129.76 8.06L129.76 8.06Q129.51 8.60 129.16 9.39L129.16 9.39L129.16 9.39Q129.70 9.31 130.16 9.26L130.16 9.26L130.16 9.26Q130.63 9.21 130.96 9.21ZM141.95 16.24L141.95 16.24L141.95 16.24Q141.15 16.00 140.87 15.79L140.87 15.79L140.87 15.79Q140.59 15.57 140.59 15.19L140.59 15.19L140.59 15.19Q140.59 14.77 140.78 14.01L140.78 14.01L140.78 14.01Q140.98 13.24 141.29 12.31L141.29 12.31L141.29 12.31Q141.61 11.37 142.02 10.35L142.02 10.35L142.02 10.35Q142.42 9.32 142.84 8.39L142.84 8.39L142.84 8.39Q143.26 7.45 143.66 6.67L143.66 6.67L143.66 6.67Q144.06 5.89 144.37 5.46L144.37 5.46L144.27 4.87L144.27 4.87Q144.47 4.87 144.82 4.97L144.82 4.97L144.82 4.97Q145.17 5.07 145.52 5.21L145.52 5.21L145.52 5.21Q145.88 5.35 146.15 5.49L146.15 5.49L146.15 5.49Q146.43 5.64 146.45 5.74L146.45 5.74L146.45 5.74Q146.38 6.08 146.34 6.76L146.34 6.76L146.34 6.76Q146.30 7.43 146.30 8.20L146.30 8.20L146.30 8.20Q146.30 9.73 146.42 11.19L146.42 11.19L146.42 11.19Q146.54 12.66 146.97 14.17L146.97 14.17L146.97 14.17Q147.20 13.05 147.46 11.94L147.46 11.94L147.46 11.94Q147.71 10.82 147.99 9.81L147.99 9.81L147.99 9.81Q148.27 8.79 148.55 7.92L148.55 7.92L148.55 7.92Q148.83 7.06 149.09 6.40L149.09 6.40L149.09 6.40Q149.35 5.75 149.58 5.38L149.58 5.38L149.58 5.38Q149.80 5.01 149.98 4.98L149.98 4.98L149.98 4.98Q150.14 5.01 150.32 5.10L150.32 5.10L150.32 5.10Q150.50 5.19 150.67 5.32L150.67 5.32L150.67 5.32Q150.84 5.45 150.98 5.60L150.98 5.60L150.98 5.60Q151.12 5.75 151.20 5.91L151.20 5.91L151.20 5.91Q150.75 6.09 150.31 6.76L150.31 6.76L150.31 6.76Q149.87 7.43 149.47 8.39L149.47 8.39L149.47 8.39Q149.07 9.35 148.73 10.47L148.73 10.47L148.73 10.47Q148.39 11.59 148.13 12.68L148.13 12.68L148.13 12.68Q147.87 13.76 147.72 14.69L147.72 14.69L147.72 14.69Q147.57 15.61 147.56 16.17L147.56 16.17L147.56 16.17Q147.56 16.20 147.57 16.21L147.57 16.21L147.57 16.21Q147.53 16.23 147.48 16.23L147.48 16.23L147.48 16.23Q147.43 16.23 147.39 16.23L147.39 16.23L147.39 16.23Q146.75 16.23 146.25 16.07L146.25 16.07L146.25 16.07Q145.75 15.90 145.60 15.61L145.60 15.61L145.60 15.61Q145.31 14.43 145.11 13.34L145.11 13.34L145.11 13.34Q144.91 12.25 144.78 11.16L144.78 11.16L144.78 11.16Q144.65 10.07 144.57 8.95L144.57 8.95L144.57 8.95Q144.49 7.84 144.45 6.62L144.45 6.62L144.45 6.62Q144.19 7.04 143.89 7.72L143.89 7.72L143.89 7.72Q143.60 8.40 143.32 9.21L143.32 9.21L143.32 9.21Q143.04 10.02 142.78 10.92L142.78 10.92L142.78 10.92Q142.52 11.82 142.32 12.67L142.32 12.67L142.32 12.67Q142.13 13.52 142.02 14.29L142.02 14.29L142.02 14.29Q141.90 15.05 141.90 15.61L141.90 15.61L141.90 15.61Q141.90 15.90 141.91 16.03L141.91 16.03L141.91 16.03Q141.92 16.16 141.95 16.24ZM160.03 6.69L160.03 6.69L160.03 6.69Q159.47 6.69 159.17 6.38L159.17 6.38L159.17 6.38Q158.87 6.06 158.87 5.61L158.87 5.61L158.87 5.61Q158.87 5.50 158.91 5.35L158.91 5.35L158.91 5.35Q158.94 5.19 159.00 5.08L159.00 5.08L159.00 5.08Q159.18 5.17 159.54 5.20L159.54 5.20L159.54 5.20Q159.89 5.24 160.37 5.24L160.37 5.24L160.37 5.24Q161.08 5.24 161.99 5.17L161.99 5.17L161.99 5.17Q162.89 5.11 163.72 5.04L163.72 5.04L163.72 5.04Q164.54 4.97 165.17 4.91L165.17 4.91L165.17 4.91Q165.80 4.84 165.98 4.84L165.98 4.84L165.98 4.84Q166.50 4.84 166.73 5.23L166.73 5.23L166.73 5.23Q166.96 5.61 167.08 6.26L167.08 6.26L167.08 6.26Q166.71 6.23 166.36 6.21L166.36 6.21L166.36 6.21Q166.00 6.19 165.75 6.19L165.75 6.19L165.75 6.19Q165.30 6.19 164.84 6.22L164.84 6.22L164.84 6.22Q164.39 6.24 163.93 6.30L163.93 6.30L163.93 6.30Q163.73 6.71 163.49 7.26L163.49 7.26L163.49 7.26Q163.25 7.81 163.02 8.41L163.02 8.41L163.02 8.41Q162.79 9.02 162.58 9.61L162.58 9.61L162.58 9.61Q162.37 10.21 162.22 10.68L162.22 10.68L162.22 10.68Q161.91 11.61 161.68 12.39L161.68 12.39L161.68 12.39Q161.45 13.17 161.27 13.85L161.27 13.85L161.27 13.85Q161.10 14.53 160.97 15.15L160.97 15.15L160.97 15.15Q160.85 15.76 160.75 16.35L160.75 16.35L160.75 16.35Q159.81 16.21 159.18 15.18L159.18 15.18L159.18 15.18Q159.29 14.74 159.45 14.23L159.45 14.23L159.45 14.23Q159.61 13.72 159.83 13.07L159.83 13.07L159.83 13.07Q160.05 12.42 160.34 11.59L160.34 11.59L160.34 11.59Q160.64 10.77 161.01 9.72L161.01 9.72L161.01 9.72Q161.15 9.32 161.31 8.90L161.31 8.90L161.31 8.90Q161.46 8.47 161.61 8.05L161.61 8.05L161.61 8.05Q161.76 7.63 161.88 7.24L161.88 7.24L161.88 7.24Q161.99 6.85 162.08 6.52L162.08 6.52L162.08 6.52Q161.49 6.59 160.97 6.64L160.97 6.64L160.97 6.64Q160.44 6.69 160.03 6.69ZM174.51 8.08L174.51 8.08L174.51 8.08Q174.43 8.01 174.36 7.85L174.36 7.85L174.36 7.85Q174.29 7.70 174.29 7.55L174.29 7.55L174.29 7.55Q174.45 7.06 174.60 6.42L174.60 6.42L174.60 6.42Q174.75 5.78 174.75 5.00L174.75 5.00L174.75 5.00Q174.75 4.65 174.71 4.28L174.71 4.28L174.71 4.28Q174.68 3.92 174.58 3.51L174.58 3.51L174.58 3.51Q175.25 3.56 175.81 3.80L175.81 3.80L175.81 3.80Q176.36 4.05 176.54 4.40L176.54 4.40L176.54 4.40Q176.30 5.67 175.81 6.61L175.81 6.61L175.81 6.61Q175.32 7.55 174.51 8.08ZM191.24 5.74L191.24 5.74L191.24 5.74Q191.28 5.98 191.30 6.07L191.30 6.07L191.30 6.07Q191.32 6.16 191.32 6.31L191.32 6.31L191.32 6.31Q191.32 6.78 191.12 7.18L191.12 7.18L191.12 7.18Q190.92 7.57 190.57 7.74L190.57 7.74L190.57 7.74Q190.29 7.36 189.88 7.09L189.88 7.09L189.88 7.09Q189.48 6.82 188.99 6.64L188.99 6.64L188.99 6.64Q188.51 6.47 187.99 6.38L187.99 6.38L187.99 6.38Q187.47 6.30 186.98 6.30L186.98 6.30L186.98 6.30Q186.49 6.30 186.07 6.38L186.07 6.38L186.07 6.38Q185.64 6.45 185.31 6.59L185.31 6.59L185.31 6.59Q184.98 6.72 184.79 6.92L184.79 6.92L184.79 6.92Q184.60 7.11 184.60 7.36L184.60 7.36L184.60 7.36Q184.65 7.67 184.98 7.99L184.98 7.99L184.98 7.99Q185.32 8.30 185.81 8.60L185.81 8.60L185.81 8.60Q186.30 8.90 186.89 9.20L186.89 9.20L186.89 9.20Q187.49 9.49 188.06 9.76L188.06 9.76L188.06 9.76Q188.78 10.09 189.29 10.38L189.29 10.38L189.29 10.38Q189.81 10.67 190.15 11.01L190.15 11.01L190.15 11.01Q190.48 11.35 190.65 11.79L190.65 11.79L190.65 11.79Q190.82 12.22 190.82 12.84L190.82 12.84L190.82 12.84Q190.82 13.55 190.58 14.18L190.58 14.18L190.58 14.18Q190.34 14.80 189.89 15.26L189.89 15.26L189.89 15.26Q189.43 15.72 188.79 15.98L188.79 15.98L188.79 15.98Q188.15 16.24 187.35 16.24L187.35 16.24L187.35 16.24Q186.56 16.24 185.65 16.00L185.65 16.00L185.65 16.00Q184.74 15.76 183.95 15.35L183.95 15.35L183.95 15.35Q183.16 14.94 182.64 14.40L182.64 14.40L182.64 14.40Q182.11 13.86 182.11 13.26L182.11 13.26L182.11 13.26Q182.11 12.98 182.27 12.54L182.27 12.54L182.27 12.54Q182.43 12.11 182.85 11.63L182.85 11.63L182.85 11.63Q182.90 12.05 183.31 12.63L183.31 12.63L183.31 12.63Q183.72 13.20 184.55 13.69L184.55 13.69L184.55 13.69Q185.32 14.14 186.14 14.34L186.14 14.34L186.14 14.34Q186.96 14.55 187.67 14.55L187.67 14.55L187.67 14.55Q188.45 14.55 188.94 14.35L188.94 14.35L188.94 14.35Q189.43 14.15 189.71 13.88L189.71 13.88L189.71 13.88Q189.99 13.61 190.11 13.33L190.11 13.33L190.11 13.33Q190.22 13.05 190.23 12.88L190.23 12.88L190.23 12.88Q190.22 12.60 189.97 12.34L189.97 12.34L189.97 12.34Q189.73 12.08 189.31 11.84L189.31 11.84L189.31 11.84Q188.90 11.59 188.36 11.34L188.36 11.34L188.36 11.34Q187.81 11.09 187.22 10.84L187.22 10.84L187.22 10.84Q186.34 10.44 185.70 10.10L185.70 10.10L185.70 10.10Q185.07 9.76 184.65 9.40L184.65 9.40L184.65 9.40Q184.24 9.04 184.05 8.65L184.05 8.65L184.05 8.65Q183.86 8.26 183.86 7.76L183.86 7.76L183.86 7.76Q183.86 6.97 184.34 6.27L184.34 6.27L184.34 6.27Q184.81 5.57 185.71 5.21L185.71 5.21L185.71 5.21Q186.16 5.01 186.67 4.93L186.67 4.93L186.67 4.93Q187.18 4.84 187.67 4.84L187.67 4.84L187.67 4.84Q188.59 4.84 189.48 5.10L189.48 5.10L189.48 5.10Q190.36 5.35 191.24 5.74ZM218.40 5.74L218.40 5.74L218.40 5.74Q218.44 5.98 218.46 6.07L218.46 6.07L218.46 6.07Q218.48 6.16 218.48 6.31L218.48 6.31L218.48 6.31Q218.48 6.78 218.28 7.18L218.28 7.18L218.28 7.18Q218.08 7.57 217.73 7.74L217.73 7.74L217.73 7.74Q217.45 7.36 217.04 7.09L217.04 7.09L217.04 7.09Q216.64 6.82 216.15 6.64L216.15 6.64L216.15 6.64Q215.67 6.47 215.15 6.38L215.15 6.38L215.15 6.38Q214.63 6.30 214.14 6.30L214.14 6.30L214.14 6.30Q213.65 6.30 213.23 6.38L213.23 6.38L213.23 6.38Q212.80 6.45 212.47 6.59L212.47 6.59L212.47 6.59Q212.14 6.72 211.95 6.92L211.95 6.92L211.95 6.92Q211.76 7.11 211.76 7.36L211.76 7.36L211.76 7.36Q211.81 7.67 212.14 7.99L212.14 7.99L212.14 7.99Q212.48 8.30 212.97 8.60L212.97 8.60L212.97 8.60Q213.46 8.90 214.05 9.20L214.05 9.20L214.05 9.20Q214.65 9.49 215.22 9.76L215.22 9.76L215.22 9.76Q215.94 10.09 216.45 10.38L216.45 10.38L216.45 10.38Q216.97 10.67 217.31 11.01L217.31 11.01L217.31 11.01Q217.64 11.35 217.81 11.79L217.81 11.79L217.81 11.79Q217.98 12.22 217.98 12.84L217.98 12.84L217.98 12.84Q217.98 13.55 217.74 14.18L217.74 14.18L217.74 14.18Q217.50 14.80 217.05 15.26L217.05 15.26L217.05 15.26Q216.59 15.72 215.95 15.98L215.95 15.98L215.95 15.98Q215.31 16.24 214.51 16.24L214.51 16.24L214.51 16.24Q213.72 16.24 212.81 16.00L212.81 16.00L212.81 16.00Q211.90 15.76 211.11 15.35L211.11 15.35L211.11 15.35Q210.32 14.94 209.80 14.40L209.80 14.40L209.80 14.40Q209.27 13.86 209.27 13.26L209.27 13.26L209.27 13.26Q209.27 12.98 209.43 12.54L209.43 12.54L209.43 12.54Q209.59 12.11 210.01 11.63L210.01 11.63L210.01 11.63Q210.06 12.05 210.47 12.63L210.47 12.63L210.47 12.63Q210.88 13.20 211.71 13.69L211.71 13.69L211.71 13.69Q212.48 14.14 213.30 14.34L213.30 14.34L213.30 14.34Q214.12 14.55 214.83 14.55L214.83 14.55L214.83 14.55Q215.61 14.55 216.10 14.35L216.10 14.35L216.10 14.35Q216.59 14.15 216.87 13.88L216.87 13.88L216.87 13.88Q217.15 13.61 217.27 13.33L217.27 13.33L217.27 13.33Q217.38 13.05 217.39 12.88L217.39 12.88L217.39 12.88Q217.38 12.60 217.13 12.34L217.13 12.34L217.13 12.34Q216.89 12.08 216.47 11.84L216.47 11.84L216.47 11.84Q216.06 11.59 215.52 11.34L215.52 11.34L215.52 11.34Q214.97 11.09 214.38 10.84L214.38 10.84L214.38 10.84Q213.50 10.44 212.86 10.10L212.86 10.10L212.86 10.10Q212.23 9.76 211.81 9.40L211.81 9.40L211.81 9.40Q211.40 9.04 211.21 8.65L211.21 8.65L211.21 8.65Q211.02 8.26 211.02 7.76L211.02 7.76L211.02 7.76Q211.02 6.97 211.50 6.27L211.50 6.27L211.50 6.27Q211.97 5.57 212.87 5.21L212.87 5.21L212.87 5.21Q213.32 5.01 213.83 4.93L213.83 4.93L213.83 4.93Q214.34 4.84 214.83 4.84L214.83 4.84L214.83 4.84Q215.75 4.84 216.64 5.10L216.64 5.10L216.64 5.10Q217.52 5.35 218.40 5.74ZM228.38 6.69L228.38 6.69L228.38 6.69Q227.82 6.69 227.52 6.38L227.52 6.38L227.52 6.38Q227.22 6.06 227.22 5.61L227.22 5.61L227.22 5.61Q227.22 5.50 227.25 5.35L227.25 5.35L227.25 5.35Q227.29 5.19 227.35 5.08L227.35 5.08L227.35 5.08Q227.53 5.17 227.88 5.20L227.88 5.20L227.88 5.20Q228.24 5.24 228.72 5.24L228.72 5.24L228.72 5.24Q229.43 5.24 230.34 5.17L230.34 5.17L230.34 5.17Q231.24 5.11 232.06 5.04L232.06 5.04L232.06 5.04Q232.89 4.97 233.52 4.91L233.52 4.91L233.52 4.91Q234.15 4.84 234.33 4.84L234.33 4.84L234.33 4.84Q234.85 4.84 235.08 5.23L235.08 5.23L235.08 5.23Q235.31 5.61 235.42 6.26L235.42 6.26L235.42 6.26Q235.06 6.23 234.70 6.21L234.70 6.21L234.70 6.21Q234.35 6.19 234.09 6.19L234.09 6.19L234.09 6.19Q233.65 6.19 233.19 6.22L233.19 6.22L233.19 6.22Q232.74 6.24 232.27 6.30L232.27 6.30L232.27 6.30Q232.08 6.71 231.84 7.26L231.84 7.26L231.84 7.26Q231.60 7.81 231.37 8.41L231.37 8.41L231.37 8.41Q231.14 9.02 230.93 9.61L230.93 9.61L230.93 9.61Q230.72 10.21 230.57 10.68L230.57 10.68L230.57 10.68Q230.26 11.61 230.03 12.39L230.03 12.39L230.03 12.39Q229.80 13.17 229.62 13.85L229.62 13.85L229.62 13.85Q229.45 14.53 229.32 15.15L229.32 15.15L229.32 15.15Q229.19 15.76 229.10 16.35L229.10 16.35L229.10 16.35Q228.16 16.21 227.53 15.18L227.53 15.18L227.53 15.18Q227.64 14.74 227.80 14.23L227.80 14.23L227.80 14.23Q227.96 13.72 228.18 13.07L228.18 13.07L228.18 13.07Q228.40 12.42 228.69 11.59L228.69 11.59L228.69 11.59Q228.98 10.77 229.36 9.72L229.36 9.72L229.36 9.72Q229.50 9.32 229.66 8.90L229.66 8.90L229.66 8.90Q229.81 8.47 229.96 8.05L229.96 8.05L229.96 8.05Q230.10 7.63 230.22 7.24L230.22 7.24L230.22 7.24Q230.34 6.85 230.43 6.52L230.43 6.52L230.43 6.52Q229.84 6.59 229.31 6.64L229.31 6.64L229.31 6.64Q228.79 6.69 228.38 6.69ZM247.30 4.98L247.30 4.98L247.30 4.98Q247.56 5.10 247.84 5.27L247.84 5.27L247.84 5.27Q248.12 5.45 248.36 5.63L248.36 5.63L248.36 5.63Q248.60 5.81 248.76 5.98L248.76 5.98L248.76 5.98Q248.92 6.16 248.93 6.27L248.93 6.27L248.93 6.27Q248.70 6.22 248.46 6.20L248.46 6.20L248.46 6.20Q248.22 6.17 248.02 6.17L248.02 6.17L248.02 6.17Q247.39 6.17 246.77 6.48L246.77 6.48L246.77 6.48Q246.15 6.79 245.59 7.32L245.59 7.32L245.59 7.32Q245.03 7.85 244.55 8.57L244.55 8.57L244.55 8.57Q244.08 9.28 243.73 10.09L243.73 10.09L243.73 10.09Q243.39 10.91 243.19 11.77L243.19 11.77L243.19 11.77Q243.00 12.64 243.00 13.48L243.00 13.48L243.00 13.48Q243.00 14.57 243.36 15.11L243.36 15.11L243.36 15.11Q243.73 15.64 244.43 15.64L244.43 15.64L244.43 15.64Q244.76 15.64 245.15 15.51L245.15 15.51L245.15 15.51Q245.55 15.37 245.95 15.13L245.95 15.13L245.95 15.13Q246.36 14.90 246.75 14.56L246.75 14.56L246.75 14.56Q247.14 14.22 247.48 13.82L247.48 13.82L247.48 13.82Q247.97 13.23 248.36 12.48L248.36 12.48L248.36 12.48Q248.75 11.73 249.03 10.89L249.03 10.89L249.03 10.89Q249.30 10.05 249.44 9.16L249.44 9.16L249.44 9.16Q249.59 8.27 249.59 7.42L249.59 7.42L249.59 7.42Q249.59 7.08 249.58 6.85L249.58 6.85L249.58 6.85Q249.56 6.62 249.54 6.46L249.54 6.46L249.54 6.46Q249.52 6.30 249.51 6.20L249.51 6.20L249.51 6.20Q249.49 6.10 249.48 6.03L249.48 6.03L249.48 6.03Q249.65 6.12 249.85 6.24L249.85 6.24L249.85 6.24Q250.05 6.36 250.23 6.59L250.23 6.59L250.23 6.59Q250.40 6.82 250.52 7.20L250.52 7.20L250.52 7.20Q250.64 7.57 250.64 8.18L250.64 8.18L250.64 8.18Q250.64 9.16 250.41 10.10L250.41 10.10L250.41 10.10Q250.18 11.05 249.77 11.90L249.77 11.90L249.77 11.90Q249.35 12.75 248.79 13.50L248.79 13.50L248.79 13.50Q248.23 14.24 247.59 14.80L247.59 14.80L247.59 14.80Q246.75 15.54 245.80 15.95L245.80 15.95L245.80 15.95Q244.85 16.35 243.96 16.35L243.96 16.35L243.96 16.35Q242.68 16.35 242.00 15.53L242.00 15.53L242.00 15.53Q241.32 14.71 241.32 13.12L241.32 13.12L241.32 13.12Q241.32 12.26 241.51 11.31L241.51 11.31L241.51 11.31Q241.70 10.36 242.04 9.44L242.04 9.44L242.04 9.44Q242.38 8.51 242.86 7.68L242.86 7.68L242.86 7.68Q243.33 6.85 243.90 6.21L243.90 6.21L243.90 6.21Q244.47 5.57 245.12 5.19L245.12 5.19L245.12 5.19Q245.77 4.82 246.46 4.82L246.46 4.82L246.46 4.82Q246.68 4.82 246.88 4.85L246.88 4.85L246.88 4.85Q247.07 4.89 247.30 4.98ZM267.48 7.46L267.48 7.46L267.48 7.46Q267.48 8.13 267.18 8.73L267.18 8.73L267.18 8.73Q266.88 9.32 266.35 9.79L266.35 9.79L266.35 9.79Q265.82 10.26 265.10 10.58L265.10 10.58L265.10 10.58Q264.39 10.91 263.55 11.02L263.55 11.02L263.55 11.02Q263.76 11.65 264.06 12.31L264.06 12.31L264.06 12.31Q264.36 12.98 264.71 13.59L264.71 13.59L264.71 13.59Q265.06 14.21 265.44 14.73L265.44 14.73L265.44 14.73Q265.82 15.25 266.18 15.58L266.18 15.58L266.18 15.58Q266.11 15.72 265.98 15.86L265.98 15.86L265.98 15.86Q265.85 16.00 265.67 16.12L265.67 16.12L265.67 16.12Q265.50 16.24 265.31 16.32L265.31 16.32L265.31 16.32Q265.12 16.39 264.95 16.39L264.95 16.39L264.95 16.39Q264.64 16.39 264.36 16.10L264.36 16.10L264.36 16.10Q264.08 15.81 263.80 15.17L263.80 15.17L263.80 15.17Q263.51 14.53 263.19 13.52L263.19 13.52L263.19 13.52Q262.88 12.50 262.50 11.07L262.50 11.07L262.50 11.07Q262.35 11.07 262.19 11.07L262.19 11.07L262.19 11.07Q262.04 11.07 261.95 11.05L261.95 11.05L261.95 11.05Q261.86 10.99 261.74 10.85L261.74 10.85L261.74 10.85Q261.37 11.66 261.07 12.38L261.07 12.38L261.07 12.38Q260.78 13.09 260.55 13.76L260.55 13.76L260.55 13.76Q260.32 14.42 260.14 15.04L260.14 15.04L260.14 15.04Q259.97 15.67 259.84 16.31L259.84 16.31L259.84 16.31Q259.36 16.20 259.01 15.90L259.01 15.90L259.01 15.90Q258.66 15.61 258.36 15.08L258.36 15.08L258.36 15.08Q258.41 14.95 258.48 14.83L258.48 14.83L258.48 14.83Q258.54 14.71 258.64 14.50L258.64 14.50L258.64 14.50Q258.73 14.28 258.88 13.94L258.88 13.94L258.88 13.94Q259.03 13.61 259.27 13.05L259.27 13.05L259.27 13.05Q259.52 12.49 259.86 11.68L259.86 11.68L259.86 11.68Q260.20 10.86 260.69 9.70L260.69 9.70L260.69 9.70Q260.92 9.18 261.08 8.79L261.08 8.79L261.08 8.79Q261.24 8.40 261.37 8.04L261.37 8.04L261.37 8.04Q261.49 7.69 261.60 7.33L261.60 7.33L261.60 7.33Q261.70 6.97 261.81 6.51L261.81 6.51L261.81 6.51Q261.17 6.73 260.62 7.01L260.62 7.01L260.62 7.01Q260.06 7.28 259.70 7.59L259.70 7.59L259.70 7.59Q259.57 7.50 259.44 7.34L259.44 7.34L259.44 7.34Q259.31 7.17 259.20 6.96L259.20 6.96L259.20 6.96Q259.08 6.76 259 6.55L259 6.55L259 6.55Q258.92 6.34 258.90 6.17L258.90 6.17L258.90 6.17Q259.32 5.89 259.93 5.66L259.93 5.66L259.93 5.66Q260.54 5.42 261.23 5.24L261.23 5.24L261.23 5.24Q261.91 5.07 262.63 4.97L262.63 4.97L262.63 4.97Q263.34 4.87 263.96 4.87L263.96 4.87L263.96 4.87Q265.64 4.87 266.56 5.56L266.56 5.56L266.56 5.56Q267.48 6.26 267.48 7.46ZM263.90 6.02L264.07 6.29L264.07 6.29Q263.97 6.41 263.76 6.79L263.76 6.79L263.76 6.79Q263.55 7.17 263.28 7.69L263.28 7.69L263.28 7.69Q263.00 8.22 262.70 8.83L262.70 8.83L262.70 8.83Q262.40 9.45 262.12 10.05L262.12 10.05L262.12 10.05Q263.17 10.05 264.05 9.86L264.05 9.86L264.05 9.86Q264.94 9.66 265.58 9.30L265.58 9.30L265.58 9.30Q266.22 8.95 266.58 8.46L266.58 8.46L266.58 8.46Q266.94 7.98 266.94 7.39L266.94 7.39L266.94 7.39Q266.94 6.69 266.43 6.32L266.43 6.32L266.43 6.32Q265.93 5.95 264.88 5.95L264.88 5.95L264.88 5.95Q264.64 5.95 264.40 5.97L264.40 5.97L264.40 5.97Q264.17 5.99 263.90 6.02L263.90 6.02ZM280.31 9.21L280.31 9.21L280.31 9.21Q280.77 9.21 281.03 9.46L281.03 9.46L281.03 9.46Q281.29 9.72 281.29 10.16L281.29 10.16L281.29 10.16Q281.29 10.28 281.27 10.39L281.27 10.39L281.27 10.39Q281.25 10.51 281.22 10.60L281.22 10.60L281.22 10.60Q281.04 10.57 280.81 10.55L280.81 10.55L280.81 10.55Q280.59 10.53 280.28 10.53L280.28 10.53L280.28 10.53Q279.68 10.53 279.06 10.63L279.06 10.63L279.06 10.63Q278.45 10.74 277.89 10.81L277.89 10.81L277.89 10.81Q277.56 11.55 277.30 12.24L277.30 12.24L277.30 12.24Q277.03 12.94 276.84 13.51L276.84 13.51L276.84 13.51Q276.65 14.08 276.55 14.50L276.55 14.50L276.55 14.50Q276.44 14.92 276.43 15.13L276.43 15.13L276.43 15.13Q277.56 14.90 278.72 14.73L278.72 14.73L278.72 14.73Q279.87 14.56 281.15 14.48L281.15 14.48L281.15 14.48Q281.30 14.71 281.41 14.99L281.41 14.99L281.41 14.99Q281.51 15.27 281.51 15.60L281.51 15.60L281.51 15.60Q281.51 15.68 281.51 15.78L281.51 15.78L281.51 15.78Q281.51 15.88 281.48 15.97L281.48 15.97L281.48 15.97Q281.09 15.96 280.66 15.95L280.66 15.95L280.66 15.95Q280.22 15.95 279.52 15.95L279.52 15.95L279.52 15.95Q279.06 15.95 278.65 15.97L278.65 15.97L278.65 15.97Q278.24 15.99 277.82 16.03L277.82 16.03L277.82 16.03Q277.40 16.07 276.93 16.14L276.93 16.14L276.93 16.14Q276.46 16.21 275.87 16.31L275.87 16.31L275.87 16.31Q275.23 16.06 274.62 15.08L274.62 15.08L274.62 15.08Q274.86 14.57 275.29 13.54L275.29 13.54L275.29 13.54Q275.72 12.52 276.37 10.79L276.37 10.79L276.37 10.79Q275.74 10.60 275.55 10.09L275.55 10.09L275.55 10.09Q275.62 10.02 275.95 9.92L275.95 9.92L275.95 9.92Q276.29 9.81 276.78 9.70L276.78 9.70L276.78 9.70Q276.99 9.16 277.14 8.75L277.14 8.75L277.14 8.75Q277.28 8.34 277.40 7.99L277.40 7.99L277.40 7.99Q277.51 7.63 277.60 7.29L277.60 7.29L277.60 7.29Q277.69 6.94 277.77 6.54L277.77 6.54L277.77 6.54Q277.28 6.51 277.00 6.27L277.00 6.27L277.00 6.27Q276.72 6.02 276.72 5.63L276.72 5.63L276.72 5.63Q276.72 5.52 276.76 5.36L276.76 5.36L276.76 5.36Q276.79 5.21 276.84 5.10L276.84 5.10L276.84 5.10Q277.12 5.14 277.37 5.15L277.37 5.15L277.37 5.15Q277.63 5.17 278.05 5.17L278.05 5.17L278.05 5.17Q278.94 5.17 279.71 5.12L279.71 5.12L279.71 5.12Q280.48 5.07 281.10 5.01L281.10 5.01L281.10 5.01Q281.72 4.96 282.17 4.91L282.17 4.91L282.17 4.91Q282.62 4.86 282.86 4.86L282.86 4.86L282.86 4.86Q283.18 4.86 283.43 5.19L283.43 5.19L283.43 5.19Q283.68 5.53 283.81 6.15L283.81 6.15L283.81 6.15Q283.37 6.10 283.10 6.09L283.10 6.09L283.10 6.09Q282.83 6.08 282.62 6.08L282.62 6.08L282.62 6.08Q281.85 6.08 281.21 6.15L281.21 6.15L281.21 6.15Q280.57 6.23 279.99 6.31L279.99 6.31L279.99 6.31Q279.90 6.44 279.80 6.64L279.80 6.64L279.80 6.64Q279.69 6.83 279.52 7.18L279.52 7.18L279.52 7.18Q279.36 7.53 279.11 8.06L279.11 8.06L279.11 8.06Q278.87 8.60 278.52 9.39L278.52 9.39L278.52 9.39Q279.05 9.31 279.52 9.26L279.52 9.26L279.52 9.26Q279.99 9.21 280.31 9.21Z"></path></g></svg>