<svg data-v-fde0c5aa="" xmlns="http://www.w3.org/2000/svg" viewBox="0 0 300 300" class="font"><!----><defs data-v-fde0c5aa=""><linearGradient data-v-fde0c5aa="" gradientTransform="rotate(25)" id="96e3c401-8463-46e3-9cfa-c011bf866f3b" x1="0%" y1="0%" x2="100%" y2="0%"><stop data-v-fde0c5aa="" offset="0%" stop-color="#422F75" stop-opacity="1"></stop><stop data-v-fde0c5aa="" offset="100%" stop-color="#C0B3EC" stop-opacity="1"></stop></linearGradient></defs><rect data-v-fde0c5aa="" fill="url(#96e3c401-8463-46e3-9cfa-c011bf866f3b)" x="0" y="0" width="300px" height="300px" class="logo-background-square"></rect><defs data-v-fde0c5aa=""><!----></defs><g data-v-fde0c5aa="" id="3c8e5f44-5022-4030-af72-0fb91aa886fb" fill="#ffffff" transform="matrix(1.9279642347144337,0,0,1.9279642347144337,38.78538254132316,131.7518182242439)"><path d="M0.63 14.35L5.17 14.35C7.88 14.35 9.90 12.61 9.90 9.46C9.90 6.31 7.88 4.58 5.17 4.58L0.63 4.58L0.63 5.45L1.64 5.45L1.64 13.48L0.63 13.48ZM3.72 5.53L4.83 5.53C6.73 5.53 7.59 6.36 7.59 8.27L7.59 10.65C7.59 12.57 6.73 13.40 4.83 13.40L3.72 13.40ZM11.26 14.35L19.22 14.35L19.22 11.55L17.68 11.55L17.68 13.40L14.35 13.40L14.35 9.76L16.42 9.76L16.42 10.65L17.46 10.65L17.46 7.91L16.42 7.91L16.42 8.81L14.35 8.81L14.35 5.53L17.56 5.53L17.56 7.14L19.10 7.14L19.10 4.58L11.26 4.58L11.26 5.45L12.26 5.45L12.26 13.48L11.26 13.48ZM20.58 14.35L28.46 14.35L28.46 11.55L26.92 11.55L26.92 13.40L22.96 13.40L28.31 5.50L28.31 4.58L20.76 4.58L20.76 7.14L22.30 7.14L22.30 5.53L25.93 5.53L20.58 13.43ZM29.81 14.35L37.77 14.35L37.77 11.55L36.23 11.55L36.23 13.40L32.90 13.40L32.90 9.76L34.97 9.76L34.97 10.65L36.01 10.65L36.01 7.91L34.97 7.91L34.97 8.81L32.90 8.81L32.90 5.53L36.11 5.53L36.11 7.14L37.65 7.14L37.65 4.58L29.81 4.58L29.81 5.45L30.81 5.45L30.81 13.48L29.81 13.48ZM39.16 14.35L43.60 14.35L43.60 13.48L42.25 13.48L42.25 10.04L44.41 10.04C46.42 10.04 47.52 9.02 47.52 7.31C47.52 5.42 46.42 4.58 44.41 4.58L39.16 4.58L39.16 5.45L40.17 5.45L40.17 13.48L39.16 13.48ZM42.25 5.53L43.83 5.53C44.81 5.53 45.37 6.03 45.37 6.96L45.37 7.66C45.37 8.58 44.81 9.09 43.83 9.09L42.25 9.09ZM50.76 14.35L55.54 14.35L55.54 13.48L54.19 13.48L54.19 5.53L56.18 5.53L56.18 7.14L57.72 7.14L57.72 4.58L48.58 4.58L48.58 7.14L50.12 7.14L50.12 5.53L52.11 5.53L52.11 13.48L50.76 13.48ZM58.77 14.35L62.87 14.35L62.87 13.48L61.87 13.48L61.87 5.45L62.87 5.45L62.87 4.58L58.77 4.58L58.77 5.45L59.78 5.45L59.78 13.48L58.77 13.48ZM71.23 14.52C73.49 14.52 74.84 13.24 74.84 11.48C74.84 9.76 73.70 8.88 71.78 8.46L71.15 8.33C69.79 8.04 69.27 7.66 69.27 6.79C69.27 6.02 69.87 5.39 71.18 5.39C72.41 5.39 73.12 5.82 73.12 6.79L73.12 7.41L74.66 7.41L74.66 4.58L73.12 4.58L73.12 5.36L73.07 5.36C72.81 4.91 72.11 4.41 70.97 4.41C68.87 4.41 67.62 5.56 67.62 7.21C67.62 9.11 68.89 9.98 70.80 10.39L71.47 10.53C72.72 10.79 73.11 11.19 73.11 12.03C73.11 12.92 72.46 13.54 71.09 13.54C69.76 13.54 69.05 13.08 69.05 12.10L69.05 11.48L67.51 11.48L67.51 14.35L69.05 14.35L69.05 13.54L69.10 13.54C69.36 14 70.08 14.52 71.23 14.52ZM78.02 14.35L82.80 14.35L82.80 13.48L81.45 13.48L81.45 5.53L83.44 5.53L83.44 7.14L84.98 7.14L84.98 4.58L75.84 4.58L75.84 7.14L77.38 7.14L77.38 5.53L79.37 5.53L79.37 13.48L78.02 13.48ZM90.50 13.54C89.15 13.54 88.17 12.64 88.17 10.89L88.17 8.04C88.17 6.29 89.15 5.39 90.50 5.39C91.84 5.39 92.82 6.29 92.82 8.04L92.82 10.89C92.82 12.64 91.84 13.54 90.50 13.54ZM90.50 14.52C93.17 14.52 95.13 12.68 95.13 9.46C95.13 6.24 93.17 4.41 90.50 4.41C87.82 4.41 85.86 6.24 85.86 9.46C85.86 12.68 87.82 14.52 90.50 14.52ZM96.49 14.35L100.59 14.35L100.59 13.48L99.58 13.48L99.58 10.00L100.77 10.00L102.35 13.01C102.84 13.94 103.39 14.35 104.68 14.35L105.94 14.35L105.94 13.48L105.87 13.48C105.22 13.48 104.85 13.26 104.47 12.61L102.66 9.59C103.95 9.32 104.83 8.41 104.83 7.08C104.83 5.35 103.63 4.58 101.84 4.58L96.49 4.58L96.49 5.45L97.50 5.45L97.50 13.48L96.49 13.48ZM99.58 5.53L101.15 5.53C102.13 5.53 102.70 6.02 102.70 6.92L102.70 7.70C102.70 8.60 102.13 9.09 101.15 9.09L99.58 9.09ZM106.78 14.35L114.74 14.35L114.74 11.55L113.20 11.55L113.20 13.40L109.87 13.40L109.87 9.76L111.94 9.76L111.94 10.65L112.98 10.65L112.98 7.91L111.94 7.91L111.94 8.81L109.87 8.81L109.87 5.53L113.08 5.53L113.08 7.14L114.62 7.14L114.62 4.58L106.78 4.58L106.78 5.45L107.79 5.45L107.79 13.48L106.78 13.48Z"></path></g><!----><!----></svg>